<svg width="56" height="56" viewBox="0 0 56 56" fill="none" xmlns="http://www.w3.org/2000/svg">
<path d="M49.2333 25.784L30.2166 6.76732C29.6333 6.18398 28.8166 5.83398 27.9999 5.83398C27.1833 5.83398 26.3666 6.18398 25.7833 6.76732L21.6999 10.8507L26.4833 15.634C26.9499 15.4007 27.4166 15.284 27.9999 15.284C29.9833 15.284 31.4999 16.8007 31.4999 18.784C31.4999 19.3673 31.3833 19.834 31.1499 20.3007L35.8166 24.9673C36.2833 24.734 36.7499 24.6173 37.3333 24.6173C39.3166 24.6173 40.8333 26.134 40.8333 28.1173C40.8333 30.1007 39.3166 31.6173 37.3333 31.6173C35.3499 31.6173 33.8333 30.1007 33.8333 28.1173C33.8333 27.534 33.9499 27.0673 34.1833 26.6007L29.5166 21.934C29.3999 21.934 29.2833 22.0507 29.1666 22.0507V34.184C30.5666 34.6507 31.4999 35.934 31.4999 37.4507C31.4999 39.434 29.9833 40.9507 27.9999 40.9507C26.0166 40.9507 24.4999 39.434 24.4999 37.4507C24.4999 35.934 25.4333 34.6507 26.8333 34.184V21.934C25.4333 21.4673 24.4999 20.184 24.4999 18.6673C24.4999 18.084 24.6166 17.6173 24.8499 17.1507L20.0666 12.3673L6.76659 25.784C6.18325 26.3673 5.83325 27.184 5.83325 28.0007C5.83325 28.8173 6.18325 29.634 6.76659 30.2173L25.7833 49.234C26.3666 49.8173 27.1833 50.1673 27.9999 50.1673C28.8166 50.1673 29.6333 49.8173 30.2166 49.234L49.2333 30.2173C49.8166 29.634 50.1666 28.8173 50.1666 28.0007C50.1666 27.184 49.8166 26.3673 49.2333 25.784Z" fill="black"/>
</svg>
