<svg width="56" height="56" viewBox="0 0 56 56" fill="none" xmlns="http://www.w3.org/2000/svg">
<path d="M0 56V0H56V56H0Z" fill="black"/>
<path d="M36.6147 41.9173C37.6912 43.6658 38.861 45.3411 41.339 45.3411C43.4203 45.3411 44.5123 44.3067 44.5123 42.8756C44.5123 41.1629 43.383 40.5547 41.0932 39.5576L39.8378 39.0225C36.215 37.4856 33.8054 35.5598 33.8054 31.492C33.8054 27.7431 36.6754 24.8902 41.1601 24.8902C44.3536 24.8902 46.6481 25.9962 48.3032 28.8927L44.3925 31.3924C43.5323 29.8556 42.6021 29.2505 41.1601 29.2505C39.6885 29.2505 38.7567 30.1791 38.7567 31.3924C38.7567 32.892 39.6901 33.4987 41.8445 34.4273L43.0998 34.9624C47.3698 36.7809 49.7778 38.6382 49.7778 42.8133C49.7778 47.312 46.225 49.7776 41.4556 49.7776C36.7905 49.7776 34.1414 47.4365 32.6667 44.5384L36.6147 41.9173ZM18.5921 42.0449C19.3792 43.4542 20.5754 44.5384 22.2958 44.5384C23.9416 44.5384 24.889 43.8882 24.889 41.3605V24.8887H30.0736V42.1569C30.0736 47.3945 27.0356 49.7776 22.5992 49.7776C18.5905 49.7776 15.6972 47.0616 14.5181 44.5384L18.5921 42.0449Z" fill="white"/>
</svg>
