<svg width="38" height="56" viewBox="0 0 38 56" fill="none" xmlns="http://www.w3.org/2000/svg">
<g clip-path="url(#clip0_1504_746)">
<path d="M17.6667 27.9993C17.6667 25.524 18.6501 23.15 20.4004 21.3997C22.1508 19.6493 24.5247 18.666 27.0001 18.666C29.4754 18.666 31.8494 19.6493 33.5997 21.3997C35.3501 23.15 36.3334 25.524 36.3334 27.9993C36.3334 30.4747 35.3501 32.8487 33.5997 34.599C31.8494 36.3494 29.4754 37.3327 27.0001 37.3327C24.5247 37.3327 22.1508 36.3494 20.4004 34.599C18.6501 32.8487 17.6667 30.4747 17.6667 27.9993Z" fill="black"/>
<path d="M9.33301 37.834H18.167V46.667C18.167 49.0097 17.2357 51.2565 15.5791 52.9131C13.9225 54.5697 11.6758 55.501 9.33301 55.501C6.99038 55.5009 4.74341 54.5696 3.08691 52.9131C1.43055 51.2565 0.5 49.0096 0.5 46.667C0.500086 44.3244 1.43042 42.0774 3.08691 40.4209C4.64 38.8678 6.71217 37.953 8.89551 37.8447L9.33301 37.834Z" fill="black" stroke="black"/>
<path d="M25.9998 0.5C28.3423 0.5 30.5893 1.43055 32.2458 3.08691C33.9023 4.74341 34.8337 6.99038 34.8337 9.33301C34.8337 11.6758 33.9024 13.9225 32.2458 15.5791C30.5893 17.2357 28.3425 18.167 25.9998 18.167H17.1667V0.5H25.9998Z" stroke="black"/>
<path d="M0 9.33333C0 11.8087 0.98333 14.1827 2.73367 15.933C4.48401 17.6833 6.85798 18.6667 9.33333 18.6667H18.6667V0H9.33333C6.85798 0 4.48401 0.98333 2.73367 2.73367C0.98333 4.48401 0 6.85798 0 9.33333Z" fill="black"/>
<path d="M9.33301 19.166H18.167V36.833H9.33301C6.99038 36.8329 4.74341 35.9016 3.08691 34.2451C1.43055 32.5886 0.5 30.3416 0.5 27.999C0.500086 25.6564 1.43042 23.4094 3.08691 21.7529C4.64 20.1998 6.71217 19.285 8.89551 19.1768L9.33301 19.166Z" stroke="black"/>
</g>
<defs>
<clipPath id="clip0_1504_746">
<rect width="37.3333" height="56" fill="white"/>
</clipPath>
</defs>
</svg>
