<svg width="64" height="64" viewBox="0 0 64 64" fill="none" xmlns="http://www.w3.org/2000/svg">
  <rect x="4" y="4" width="56" height="56" fill="black"/>
  <path d="M21 24C22.5 20 26 18 30 18C36 18 41 23 41 29C41 35 36 40 30 40C28 40 26.5 39.5 25 38.7L27 34.5C27.7 35 28.8 35.3 29.8 35.3C32.7 35.3 35 33 35 30C35 27 32.7 24.7 29.8 24.7C27.4 24.7 25.6 26 24.7 28H21Z" fill="white"/>
  <path d="M38 44C34.5 47 31 48 27 48C23.5 48 20.5 47 18 45L20.5 41.5C22.3 42.7 24.7 43.5 27 43.5C29.7 43.5 32.1 42.7 34.5 40.8L38 44Z" fill="white"/>
</svg>

