<svg width="64" height="64" viewBox="0 0 64 64" fill="none" xmlns="http://www.w3.org/2000/svg">
  <rect x="4" y="4" width="56" height="56" fill="black"/>
  <rect x="14" y="14" width="36" height="36" rx="6" stroke="white" stroke-width="2"/>
  <path d="M24 22H34C38 22 40.5 24 40.5 27.5C40.5 30.2 39 32 36.7 32.5V32.6C39.6 33.1 41.5 35.1 41.5 38C41.5 41.9 38.6 44 33.9 44H24V22ZM30 30.3H33.4C35.4 30.3 36.6 29.4 36.6 27.8C36.6 26.2 35.5 25.3 33.4 25.3H30V30.3ZM30 40.7H33.8C36.1 40.7 37.4 39.7 37.4 37.8C37.4 35.9 36 34.9 33.6 34.9H30V40.7Z" fill="white"/>
</svg>

