<svg width="20" height="20" viewBox="0 0 20 20" fill="none" xmlns="http://www.w3.org/2000/svg">
<path d="M10 0C15.5228 5.15406e-07 20 4.47715 20 10C20 15.5228 15.5228 20 10 20C4.47715 20 5.15422e-07 15.5228 0 10C0 4.47715 4.47715 0 10 0ZM14.1758 3.95312C13.7665 3.95312 13.4157 4.18727 13.252 4.53809L10.8301 4.02344C10.7601 4.01184 10.6902 4.02362 10.6318 4.05859C10.5734 4.09368 10.538 4.15248 10.5146 4.22266L9.77734 7.70801C8.22197 7.75487 6.82997 8.21049 5.82422 8.94727C5.56692 8.70177 5.20421 8.53809 4.81836 8.53809C4.01151 8.53828 3.35645 9.1931 3.35645 10C3.35645 10.5965 3.70804 11.0991 4.22266 11.333C4.19929 11.4732 4.18752 11.6254 4.1875 11.7773C4.1875 14.023 6.79537 15.8359 10.0234 15.8359C13.2515 15.8359 15.8594 14.0229 15.8594 11.7773C15.8594 11.6255 15.8476 11.4849 15.8242 11.3447C16.3037 11.1108 16.667 10.5965 16.667 10C16.667 9.19311 16.0119 8.5383 15.2051 8.53809C14.8075 8.53809 14.4565 8.6901 14.1992 8.94727C13.2051 8.23382 11.8242 7.76649 10.3037 7.70801L10.9707 4.58496L13.1348 5.04102C13.1582 5.59067 13.6144 6.03516 14.1758 6.03516C14.7487 6.03497 15.2168 5.56712 15.2168 4.99414C15.2168 4.42115 14.7487 3.95331 14.1758 3.95312ZM12.1172 13.4033C12.2224 13.2983 12.3977 13.2982 12.5029 13.4033C12.5848 13.5202 12.5846 13.6838 12.4795 13.7891C11.7661 14.5025 10.4094 14.5498 10.0117 14.5498C9.61406 14.5498 8.2457 14.4908 7.54395 13.7891C7.43884 13.6838 7.43873 13.5085 7.54395 13.4033C7.64917 13.2982 7.82445 13.2983 7.92969 13.4033C8.37413 13.8478 9.33338 14.0117 10.0234 14.0117C10.7135 14.0117 11.6611 13.8478 12.1172 13.4033ZM7.70801 10C8.28092 10.0002 8.74902 10.468 8.74902 11.041C8.74897 11.6139 8.28089 12.0818 7.70801 12.082C7.13494 12.082 6.66705 11.6141 6.66699 11.041C6.66699 10.4679 7.13491 10 7.70801 10ZM12.292 10C12.8651 10 13.333 10.4679 13.333 11.041C13.333 11.6141 12.8651 12.082 12.292 12.082C11.7191 12.0818 11.252 11.6139 11.252 11.041C11.252 10.4681 11.7191 10.0002 12.292 10Z" fill="black"/>
</svg>
